<svg xmlns="http://www.w3.org/2000/svg" width="1200" height="630" viewBox="0 0 1200 630" fill="none">
  <defs>
    <linearGradient id="bg" x1="0" y1="0" x2="1" y2="1">
      <stop offset="0" stop-color="#1f1208"/>
      <stop offset="1" stop-color="#3d1f09"/>
    </linearGradient>
    <linearGradient id="brand" x1="0" y1="0" x2="1" y2="1">
      <stop offset="0" stop-color="#ff9645"/>
      <stop offset="1" stop-color="#ff5f00"/>
    </linearGradient>
    <filter id="soft" x="-30%" y="-30%" width="160%" height="160%">
      <feGaussianBlur stdDeviation="24"/>
    </filter>
  </defs>

  <rect width="1200" height="630" fill="url(#bg)"/>

  <circle cx="108" cy="86" r="120" fill="#ff7a29" opacity="0.25" filter="url(#soft)"/>
  <circle cx="1126" cy="550" r="160" fill="#ff8f44" opacity="0.24" filter="url(#soft)"/>

  <rect x="68" y="58" width="1064" height="514" rx="40" fill="#2a160a" stroke="#ff8a39" stroke-opacity="0.45" stroke-width="2"/>

  <rect x="114" y="118" width="128" height="128" rx="26" fill="#fce8d5"/>
  <circle cx="178" cy="167" r="31" fill="#2f1b0c"/>
  <path d="M131 236c8-29 25-45 47-45 22 0 39 16 47 45" stroke="url(#brand)" stroke-width="14" stroke-linecap="round"/>

  <text x="274" y="170" fill="url(#brand)" font-family="Manrope,Segoe UI,sans-serif" font-weight="800" font-size="84">Feed A Bum</text>
  <text x="276" y="220" fill="#ffd9bb" font-family="Manrope,Segoe UI,sans-serif" font-weight="500" font-size="34">Hyperlocal micro-giving for Tucson, AZ</text>

  <rect x="112" y="284" width="974" height="208" rx="24" fill="#fff4e9"/>
  <text x="150" y="350" fill="#5b2e0f" font-family="Manrope,Segoe UI,sans-serif" font-weight="700" font-size="36">Verified recipients • Fast QR support • Recurring giving</text>
  <text x="150" y="406" fill="#7b4721" font-family="Manrope,Segoe UI,sans-serif" font-weight="500" font-size="30">Backed by Dark Horses USA and expanding local outreach partnerships.</text>

  <rect x="150" y="442" width="356" height="34" rx="17" fill="#ffe0c3"/>
  <text x="170" y="466" fill="#8a430f" font-family="Manrope,Segoe UI,sans-serif" font-weight="700" font-size="21">Scan badges. Support neighbors. Build stability.</text>

  <text x="912" y="542" fill="#ffd8bc" font-family="Manrope,Segoe UI,sans-serif" font-weight="600" font-size="30">fab.gops.app</text>
</svg>
